HIERARCHY
ROOT joint_Root
{
	OFFSET 0.0 0.0 0.0
	CHANNELS 6 Xposition Yposition Zposition Zrotation Xrotation Yrotation 
	JOINT Hips
	{
		OFFSET 4.5925 91.4895 -427.239
		CHANNELS 6 Xposition Yposition Zposition Zrotation Xrotation Yrotation 
		JOINT Spine
		{
			OFFSET 15.7357 0.0 0.0
			CHANNELS 6 Xposition Yposition Zposition Zrotation Xrotation Yrotation 
			JOINT Chest
			{
				OFFSET 8.98455 -0.406207 0.0
				CHANNELS 6 Xposition Yposition Zposition Zrotation Xrotation Yrotation 
				JOINT Neck
				{
					OFFSET 16.3773 0.0 0.0
					CHANNELS 6 Xposition Yposition Zposition Zrotation Xrotation Yrotation 
					JOINT Head
					{
						OFFSET 6.45672 0.0 0.0
						CHANNELS 6 Xposition Yposition Zposition Zrotation Xrotation Yrotation 
						End Site
						{
							OFFSET 0.0 0.0 0.0
						}
					}
				}
				JOINT Shoulder_L
				{
					OFFSET 12.9942 -0.242716 4.98039
					CHANNELS 6 Xposition Yposition Zposition Zrotation Xrotation Yrotation 
					JOINT UpperArm_L
					{
						OFFSET 5.34809 0.0 0.0
						CHANNELS 6 Xposition Yposition Zposition Zrotation Xrotation Yrotation 
						JOINT LowerArm_L
						{
							OFFSET 24.3286 1.87007e-05 0.0
							CHANNELS 6 Xposition Yposition Zposition Zrotation Xrotation Yrotation 
							JOINT Hand_L
							{
								OFFSET 22.2916 0.0 0.0
								CHANNELS 6 Xposition Yposition Zposition Zrotation Xrotation Yrotation 
								End Site
								{
									OFFSET 0.0 0.0 0.0
								}
							}
						}
					}
				}
				JOINT Shoulder_R
				{
					OFFSET 12.9945 -0.242716 -4.98039
					CHANNELS 6 Xposition Yposition Zposition Zrotation Xrotation Yrotation 
					JOINT UpperArm_R
					{
						OFFSET -5.34813 0.0 0.0
						CHANNELS 6 Xposition Yposition Zposition Zrotation Xrotation Yrotation 
						JOINT LowerArm_R
						{
							OFFSET -24.3289 0.000322201 0.0
							CHANNELS 6 Xposition Yposition Zposition Zrotation Xrotation Yrotation 
							JOINT Hand_R
							{
								OFFSET -22.2915 -0.000108084 0.0
								CHANNELS 6 Xposition Yposition Zposition Zrotation Xrotation Yrotation 
								End Site
								{
									OFFSET 0.0 0.0 0.0
								}
							}
						}
					}
				}
			}
		}
		JOINT UpperLeg_L
		{
			OFFSET -2.19248 -6.46944 0.0
			CHANNELS 6 Xposition Yposition Zposition Zrotation Xrotation Yrotation 
			JOINT LowerLeg_L
			{
				OFFSET 39.0811 0.0 -1.23785e-05
				CHANNELS 6 Xposition Yposition Zposition Zrotation Xrotation Yrotation 
				JOINT Foot_L
				{
					OFFSET 40.9854 0.0 -1.26872e-05
					CHANNELS 6 Xposition Yposition Zposition Zrotation Xrotation Yrotation 
					JOINT Toes_L
					{
						OFFSET 11.7543 0.0 0.0
						CHANNELS 6 Xposition Yposition Zposition Zrotation Xrotation Yrotation 
						End Site
						{
							OFFSET 0.0 0.0 0.0
						}
					}
				}
			}
		}
		JOINT UpperLeg_R
		{
			OFFSET -2.19251 6.46944 0.0
			CHANNELS 6 Xposition Yposition Zposition Zrotation Xrotation Yrotation 
			JOINT LowerLeg_R
			{
				OFFSET -39.0811 -0.00228153 -0.0401928
				CHANNELS 6 Xposition Yposition Zposition Zrotation Xrotation Yrotation 
				JOINT Foot_R
				{
					OFFSET -40.9854 0.0 0.0
					CHANNELS 6 Xposition Yposition Zposition Zrotation Xrotation Yrotation 
					JOINT Toes_R
					{
						OFFSET -11.7543 0.0 0.0
						CHANNELS 6 Xposition Yposition Zposition Zrotation Xrotation Yrotation 
						End Site
						{
							OFFSET 0.0 0.0 0.0
						}
					}
				}
			}
		}
	}
}
MOTION
Frames:	4
Frame Time:	0.0333333
0.000000 0.000000 0.000000 0.000000 0.000000 -0.000000 128.250000 89.280700 -16.242600 87.072800 -4.324650 1.285290 15.735700 0.000005 -0.000001 84.589500 80.950200 -84.381800 8.984550 -0.406207 -0.000000 10.259300 -1.690860 0.566921 16.377300 -0.000001 -0.000001 3.792430 -3.540480 0.976634 6.456720 -0.000001 -0.000000 0.643191 -2.392900 -1.930580 12.994200 -0.242716 4.980390 -90.974500 3.418160 -74.077100 5.348090 -0.000007 -0.000001 -58.877000 30.551000 -25.163900 24.328600 0.000019 0.000005 8.747280 18.113500 -26.331700 22.291600 -0.000001 0.000005 14.062600 5.280620 0.609273 12.994500 -0.242716 -4.980390 88.366000 9.344160 -80.035400 -5.348130 -0.000001 -0.000004 -63.566800 31.229300 -11.232700 -24.328900 0.000322 -0.000009 1.090850 2.972960 -20.178100 -22.291500 -0.000108 -0.000004 14.890500 5.414310 -3.407980 -2.192480 -6.469440 -0.000000 -179.713000 -9.181960 -6.210900 39.081100 -0.000007 -0.000012 -0.098350 0.140072 35.074500 40.985400 -0.000006 -0.000013 5.506240 -3.845960 -78.060100 11.754300 -0.000000 0.000003 -1.624520 -2.146370 -15.281200 -2.192510 6.469440 -0.000001 -178.037000 12.062300 155.218000 -39.081100 -0.002282 -0.040193 0.029644 -0.020214 52.566200 -40.985400 0.000008 0.000006 3.450960 -3.225570 -64.043000 -11.754300 -0.000006 -0.000006 -0.016260 -0.145609 -22.516000
0.000000 0.000000 0.000000 0.000000 0.000000 -0.000000 128.033000 89.433100 -14.614000 86.991700 -3.417620 0.712040 15.735700 0.000005 -0.000001 82.719500 81.037200 -82.417900 8.984550 -0.406207 -0.000000 10.026800 -2.251340 0.800423 16.377300 -0.000001 -0.000001 3.554090 -3.552060 0.954996 6.456720 -0.000001 -0.000000 0.513830 -2.296020 -1.682460 12.994200 -0.242716 4.980390 -90.935900 3.298310 -74.149700 5.348090 -0.000007 -0.000001 -57.276200 29.933500 -27.558300 24.328600 0.000019 0.000005 8.915680 16.468000 -28.960200 22.291600 -0.000001 0.000005 14.810300 5.287570 0.418131 12.994500 -0.242716 -4.980390 88.310700 9.487720 -79.855900 -5.348130 -0.000001 -0.000004 -64.366800 30.766700 -9.544250 -24.328900 0.000322 -0.000009 1.281640 3.703380 -19.119600 -22.291500 -0.000108 -0.000004 14.484800 5.402420 -3.016320 -2.192480 -6.469440 -0.000000 -179.568000 -8.593150 -5.037910 39.081100 -0.000007 -0.000012 0.015046 -0.022586 33.669000 40.985400 -0.000006 -0.000013 6.263110 -3.740200 -77.821500 11.754300 -0.000000 0.000003 -1.799380 -2.365510 -15.721200 -2.192510 6.469440 -0.000001 -176.407000 12.812300 153.852000 -39.081100 -0.002282 -0.040193 0.016617 -0.013031 45.702500 -40.985400 0.000008 0.000006 2.311920 0.000166 -63.989200 -11.754300 -0.000006 -0.000006 -0.016340 -0.146097 -22.536000
0.000000 0.000000 0.000000 0.000000 0.000000 -0.000000 127.761000 89.465600 -12.835400 87.083100 -2.421920 0.220016 15.735700 0.000005 -0.000001 80.862000 81.089300 -80.492800 8.984550 -0.406207 -0.000000 9.846990 -2.806230 0.979717 16.377300 -0.000001 -0.000001 3.317580 -3.634990 0.912582 6.456720 -0.000001 -0.000000 0.392308 -2.257220 -1.435250 12.994200 -0.242716 4.980390 -90.873500 3.115190 -74.327500 5.348090 -0.000007 -0.000001 -55.990900 29.346900 -29.436300 24.328600 0.000019 0.000005 9.517150 15.737100 -31.721200 22.291600 -0.000001 0.000005 15.683100 5.300140 0.068632 12.994500 -0.242716 -4.980390 88.262700 9.524220 -79.612500 -5.348130 -0.000001 -0.000004 -65.301500 29.975200 -8.047950 -24.328900 0.000322 -0.000009 1.451330 4.401860 -18.280800 -22.291500 -0.000108 -0.000004 14.339100 5.392890 -2.707790 -2.192480 -6.469440 -0.000000 -179.273000 -8.195330 -4.145420 39.081100 -0.000007 -0.000012 0.011527 -0.017691 33.083900 40.985400 -0.000006 -0.000013 6.023090 -2.938770 -77.307500 11.754300 -0.000000 0.000003 -2.196830 -2.840060 -16.773300 -2.192510 6.469440 -0.000001 -174.768000 13.926100 152.822000 -39.081100 -0.002282 -0.040193 0.004902 -0.001994 39.112100 -40.985400 0.000008 0.000006 1.321150 3.715040 -64.379800 -11.754300 -0.000006 -0.000006 -0.016698 -0.148258 -22.624800
0.000000 0.000000 0.000000 0.000000 0.000000 -0.000000 127.458000 89.397000 -10.863600 87.036300 -1.492340 -0.136197 15.735700 0.000005 -0.000001 79.644600 81.099600 -79.113700 8.984550 -0.406207 -0.000000 9.770890 -3.171150 1.332450 16.377300 -0.000001 -0.000001 3.187140 -3.769920 0.884744 6.456720 -0.000001 -0.000000 0.179434 -2.299560 -1.365410 12.994200 -0.242716 4.980390 -90.827000 2.992710 -74.544400 5.348090 -0.000007 -0.000001 -54.931900 28.919200 -31.011200 24.328600 0.000019 0.000005 10.316500 15.528400 -34.212800 22.291600 -0.000001 0.000005 16.266000 5.303960 -0.039039 12.994500 -0.242716 -4.980390 88.243800 9.538860 -79.517900 -5.348130 -0.000001 -0.000004 -66.179100 28.839900 -6.662780 -24.328900 0.000322 -0.000009 1.446600 4.499720 -17.854700 -22.291500 -0.000108 -0.000004 14.192900 5.389300 -2.592960 -2.192480 -6.469440 -0.000000 -178.656000 -8.218230 -3.368940 39.081100 -0.000007 -0.000012 0.008437 -0.012854 33.276500 40.985400 -0.000006 -0.000013 5.589580 -1.832500 -77.096700 11.754300 -0.000000 0.000003 -1.953010 -2.448380 -17.531800 -2.192510 6.469440 -0.000001 -172.797000 14.847800 151.717000 -39.081100 -0.002282 -0.040193 0.003211 0.000118 34.524700 -40.985400 0.000008 0.000006 3.283310 6.603570 -63.389400 -11.754300 -0.000006 -0.000006 -0.016610 -0.147730 -22.603100
